<mxfile host="app.diagrams.net" modified="2021-10-19T14:25:37.981Z" agent="5.0 (Windows NT 10.0; Win64; x64) AppleWebKit/537.36 (KHTML, like Gecko) Chrome/94.0.4606.81 Safari/537.36" etag="zzdAKNclNEOeO3gnyAPi" version="15.5.5" type="github">
  <diagram id="p4C9zrRHNRCPthttikzv" name="Page-1">
    <mxGraphModel dx="1422" dy="762" grid="1" gridSize="10" guides="1" tooltips="1" connect="1" arrows="1" fold="1" page="1" pageScale="1" pageWidth="1100" pageHeight="850" math="0" shadow="0">
      <root>
        <mxCell id="0" />
        <mxCell id="1" parent="0" />
        <mxCell id="_tcsqo-VSNriL6_dY4cK-1" value="User Device" style="shape=umlLifeline;perimeter=lifelinePerimeter;container=1;collapsible=0;recursiveResize=0;rounded=0;shadow=0;strokeWidth=1;" parent="1" vertex="1">
          <mxGeometry x="140" y="100" width="100" height="330" as="geometry" />
        </mxCell>
        <mxCell id="_tcsqo-VSNriL6_dY4cK-2" value="" style="points=[];perimeter=orthogonalPerimeter;rounded=0;shadow=0;strokeWidth=1;" parent="_tcsqo-VSNriL6_dY4cK-1" vertex="1">
          <mxGeometry x="45" y="70" width="10" height="30" as="geometry" />
        </mxCell>
        <mxCell id="_tcsqo-VSNriL6_dY4cK-3" value="REF_POINT_LIST" style="html=1;verticalAlign=bottom;endArrow=block;entryX=0.1;entryY=0;entryDx=0;entryDy=0;entryPerimeter=0;" parent="_tcsqo-VSNriL6_dY4cK-1" target="_tcsqo-VSNriL6_dY4cK-9" edge="1">
          <mxGeometry width="80" relative="1" as="geometry">
            <mxPoint x="55" y="100" as="sourcePoint" />
            <mxPoint x="500" y="100" as="targetPoint" />
          </mxGeometry>
        </mxCell>
        <mxCell id="_tcsqo-VSNriL6_dY4cK-4" value="" style="points=[];perimeter=orthogonalPerimeter;rounded=0;shadow=0;strokeWidth=1;" parent="_tcsqo-VSNriL6_dY4cK-1" vertex="1">
          <mxGeometry x="45" y="140" width="10" height="30" as="geometry" />
        </mxCell>
        <mxCell id="_tcsqo-VSNriL6_dY4cK-5" value="REF_POINT_LIST" style="html=1;verticalAlign=bottom;endArrow=block;entryX=0.1;entryY=0;entryDx=0;entryDy=0;entryPerimeter=0;" parent="_tcsqo-VSNriL6_dY4cK-1" edge="1">
          <mxGeometry width="80" relative="1" as="geometry">
            <mxPoint x="55" y="170" as="sourcePoint" />
            <mxPoint x="506" y="170" as="targetPoint" />
          </mxGeometry>
        </mxCell>
        <mxCell id="_tcsqo-VSNriL6_dY4cK-6" value="" style="points=[];perimeter=orthogonalPerimeter;rounded=0;shadow=0;strokeWidth=1;" parent="_tcsqo-VSNriL6_dY4cK-1" vertex="1">
          <mxGeometry x="45" y="250" width="10" height="30" as="geometry" />
        </mxCell>
        <mxCell id="_tcsqo-VSNriL6_dY4cK-7" value="REF_POINT_LIST" style="html=1;verticalAlign=bottom;endArrow=block;entryX=0.1;entryY=0;entryDx=0;entryDy=0;entryPerimeter=0;" parent="_tcsqo-VSNriL6_dY4cK-1" edge="1">
          <mxGeometry width="80" relative="1" as="geometry">
            <mxPoint x="55" y="280" as="sourcePoint" />
            <mxPoint x="506" y="280" as="targetPoint" />
          </mxGeometry>
        </mxCell>
        <mxCell id="_tcsqo-VSNriL6_dY4cK-8" value="SLAC" style="shape=umlLifeline;perimeter=lifelinePerimeter;container=1;collapsible=0;recursiveResize=0;rounded=0;shadow=0;strokeWidth=1;" parent="1" vertex="1">
          <mxGeometry x="600" y="100" width="100" height="330" as="geometry" />
        </mxCell>
        <mxCell id="_tcsqo-VSNriL6_dY4cK-9" value="" style="points=[];perimeter=orthogonalPerimeter;rounded=0;shadow=0;strokeWidth=1;" parent="_tcsqo-VSNriL6_dY4cK-8" vertex="1">
          <mxGeometry x="45" y="100" width="10" height="30" as="geometry" />
        </mxCell>
        <mxCell id="_tcsqo-VSNriL6_dY4cK-10" value="ACK?" style="html=1;verticalAlign=bottom;endArrow=open;dashed=1;endSize=8;" parent="_tcsqo-VSNriL6_dY4cK-8" edge="1">
          <mxGeometry relative="1" as="geometry">
            <mxPoint x="55" y="130" as="sourcePoint" />
            <mxPoint x="-408" y="130" as="targetPoint" />
          </mxGeometry>
        </mxCell>
        <mxCell id="_tcsqo-VSNriL6_dY4cK-11" value="" style="points=[];perimeter=orthogonalPerimeter;rounded=0;shadow=0;strokeWidth=1;" parent="_tcsqo-VSNriL6_dY4cK-8" vertex="1">
          <mxGeometry x="45" y="170" width="10" height="30" as="geometry" />
        </mxCell>
        <mxCell id="_tcsqo-VSNriL6_dY4cK-12" value="ACK?" style="html=1;verticalAlign=bottom;endArrow=open;dashed=1;endSize=8;" parent="_tcsqo-VSNriL6_dY4cK-8" edge="1">
          <mxGeometry relative="1" as="geometry">
            <mxPoint x="55" y="200" as="sourcePoint" />
            <mxPoint x="-410" y="200" as="targetPoint" />
          </mxGeometry>
        </mxCell>
        <mxCell id="_tcsqo-VSNriL6_dY4cK-13" value="" style="points=[];perimeter=orthogonalPerimeter;rounded=0;shadow=0;strokeWidth=1;" parent="_tcsqo-VSNriL6_dY4cK-8" vertex="1">
          <mxGeometry x="45" y="280" width="10" height="30" as="geometry" />
        </mxCell>
        <mxCell id="_tcsqo-VSNriL6_dY4cK-14" value="ACK?" style="html=1;verticalAlign=bottom;endArrow=open;dashed=1;endSize=8;" parent="_tcsqo-VSNriL6_dY4cK-8" edge="1">
          <mxGeometry relative="1" as="geometry">
            <mxPoint x="55" y="310" as="sourcePoint" />
            <mxPoint x="-410" y="310" as="targetPoint" />
          </mxGeometry>
        </mxCell>
        <mxCell id="_tcsqo-VSNriL6_dY4cK-15" value="&lt;b&gt;.&lt;br&gt;.&lt;br&gt;.&lt;/b&gt;" style="text;html=1;strokeColor=none;fillColor=none;align=center;verticalAlign=middle;whiteSpace=wrap;rounded=0;" parent="1" vertex="1">
          <mxGeometry x="410" y="310" width="40" height="40" as="geometry" />
        </mxCell>
      </root>
    </mxGraphModel>
  </diagram>
</mxfile>
